<?xml version="1.0" standalone="no"?>
<!DOCTYPE svg PUBLIC "-//W3C//DTD SVG 20010904//EN"
 "http://www.w3.org/TR/2001/REC-SVG-20010904/DTD/svg10.dtd">
<svg version="1.0" xmlns="http://www.w3.org/2000/svg"
 width="772.000000pt" height="772.000000pt" viewBox="0 0 772.000000 772.000000"
 preserveAspectRatio="xMidYMid meet">
<metadata>
Created by potrace 1.11, written by Peter Selinger 2001-2013
</metadata>
<g transform="translate(0.000000,772.000000) scale(0.100000,-0.100000)"
fill="#000000" stroke="none">
<path d="M3639 7706 c-2 -2 -51 -7 -109 -11 -57 -3 -107 -8 -110 -10 -3 -2
-35 -6 -72 -9 -63 -7 -79 -9 -138 -21 -14 -2 -41 -7 -60 -10 -19 -3 -42 -8
-50 -10 -8 -2 -29 -7 -45 -9 -59 -10 -307 -77 -398 -107 -449 -150 -847 -369
-1227 -674 -160 -128 -424 -389 -535 -530 -22 -27 -43 -52 -46 -55 -17 -16
-137 -182 -205 -285 -209 -315 -361 -640 -473 -1010 -53 -174 -112 -451 -126
-590 -4 -33 -8 -67 -10 -75 -12 -46 -20 -235 -20 -455 1 -223 4 -304 20 -425
3 -19 7 -55 10 -80 9 -76 36 -228 59 -330 117 -515 336 -995 650 -1424 314
-429 724 -796 1181 -1061 156 -90 368 -192 525 -252 36 -14 74 -28 85 -33 70
-28 318 -103 400 -121 33 -7 62 -13 65 -14 78 -18 83 -19 200 -40 47 -8 105
-17 130 -20 25 -3 56 -7 70 -10 90 -13 216 -19 435 -20 213 0 437 10 455 20 3
1 37 6 75 9 39 4 77 9 85 11 8 3 53 11 100 19 582 104 1183 372 1655 741 470
366 864 851 1111 1365 171 358 313 830 349 1163 4 32 8 67 10 79 26 135 26
750 0 888 -1 8 -6 38 -9 65 -6 45 -27 174 -41 249 -3 15 -13 58 -21 95 -9 36
-18 74 -20 84 -11 56 -92 310 -135 427 -62 165 -203 454 -298 612 -386 642
-962 1165 -1636 1489 -394 189 -798 305 -1230 355 -33 3 -76 8 -95 11 -49 5
-556 14 -561 9z"/>
</g>
</svg>
